<svg width="201" height="200" viewBox="0 0 201 200" fill="none" xmlns="http://www.w3.org/2000/svg">
<g clip-path="url(#clip0_1235_4914)">
<path d="M167.5 0H33.5C14.9985 0 0 14.9238 0 33.3333V166.667C0 185.076 14.9985 200 33.5 200H167.5C186.002 200 201 185.076 201 166.667V33.3333C201 14.9238 186.002 0 167.5 0Z" fill="#2A006D"/>
<path opacity="0.15" d="M33.5 27.7778H173.083C173.083 27.7778 156.333 41.3671 156.333 44.4448V77.7782C156.333 80.8559 153.843 83.3337 150.75 83.3337H33.5C30.4068 83.3337 27.9167 80.8559 27.9167 77.7782V33.3334C27.9167 30.2556 30.4068 27.7778 33.5 27.7778ZM156.333 94.4448H16.75C16.75 94.4448 33.5 108.034 33.5 111.112V133.334C33.5 136.411 35.9902 138.889 39.0833 138.889H156.333C159.426 138.889 161.917 136.411 161.917 133.334V100C161.917 96.9226 159.426 94.4448 156.333 94.4448ZM100.5 150H173.083C173.083 150 156.333 163.589 156.333 166.667V177.778C156.333 180.856 153.843 183.334 150.75 183.334H100.5C97.4068 183.334 94.9167 180.856 94.9167 177.778V155.556C94.9167 152.478 97.4068 150 100.5 150Z" fill="#B267FE"/>
<path d="M39.0833 27.7778H178.667C178.667 27.7778 161.917 41.3671 161.917 44.4448V77.7782C161.917 80.8559 159.427 83.3337 156.333 83.3337H39.0833C35.9902 83.3337 33.5 80.8559 33.5 77.7782V33.3334C33.5 30.2556 35.9902 27.7778 39.0833 27.7778Z" fill="#02FF67"/>
<path d="M161.917 94.4445H22.3334C22.3334 94.4445 39.0834 108.033 39.0834 111.111V133.333C39.0834 136.411 41.5735 138.889 44.6667 138.889H161.917C165.01 138.889 167.5 136.411 167.5 133.333V100C167.5 96.9222 165.01 94.4445 161.917 94.4445Z" fill="#DCFF04"/>
<path d="M106.083 150H178.667C178.667 150 161.917 163.589 161.917 166.667V177.778C161.917 180.856 159.426 183.333 156.333 183.333H106.083C102.99 183.333 100.5 180.856 100.5 177.778V155.556C100.5 152.478 102.99 150 106.083 150Z" fill="#FFB800"/>
<path fill-rule="evenodd" clip-rule="evenodd" d="M47.4584 41.6606V47.2162H80.9584V41.6606H47.4584ZM92.125 41.6606V47.2162H97.7084V41.6606H92.125ZM108.875 41.6606V47.2162H131.208V41.6606H108.875ZM142.375 41.6606V47.2162H147.958V41.6606H142.375ZM47.4584 52.7718V58.3273H58.625V52.7718H47.4584ZM64.2084 52.7718V58.3273H92.125V52.7718H64.2084ZM97.7084 52.7718V58.3273H147.958V52.7718H97.7084ZM47.4584 63.8829V69.4384H75.375V63.8829H47.4584ZM80.9584 63.8829V69.4384H103.292V63.8829H80.9584ZM108.875 63.8829V69.4384H114.458V63.8829H108.875ZM53.0417 108.327V113.883H64.2084V108.327H53.0417ZM69.7917 108.327V113.883H97.7084V108.327H69.7917ZM103.292 108.327V113.883H153.542V108.327H103.292ZM53.0417 119.438V124.994H80.9584V119.438H53.0417ZM86.5417 119.438V124.994H108.875V119.438H86.5417ZM114.458 119.438V124.994H120.042V119.438H114.458Z" fill="#06000C"/>
<path d="M120.042 158.333H125.625V163.889H120.042V158.333ZM120.042 169.445H125.625V175H120.042V169.445Z" fill="#06000C"/>
<path fill-rule="evenodd" clip-rule="evenodd" d="M133.793 158.327C133.309 158.359 132.842 158.515 132.437 158.781C132.032 159.047 131.703 159.414 131.484 159.844C131.265 160.275 131.162 160.755 131.186 161.237C131.21 161.72 131.36 162.187 131.622 162.594C133.464 165.578 133.464 167.761 131.622 170.744C131.419 171.055 131.282 171.403 131.217 171.768C131.152 172.133 131.16 172.506 131.243 172.867C131.325 173.228 131.479 173.57 131.696 173.871C131.913 174.172 132.188 174.427 132.505 174.621C132.822 174.815 133.175 174.943 133.543 174.999C133.911 175.055 134.286 175.038 134.647 174.947C135.008 174.857 135.347 174.695 135.645 174.472C135.942 174.25 136.191 173.97 136.379 173.65C137.71 171.561 138.416 169.14 138.416 166.667C138.416 164.194 137.71 161.771 136.379 159.683C136.116 159.241 135.735 158.881 135.278 158.642C134.822 158.403 134.308 158.294 133.793 158.327Z" fill="#06000C"/>
</g>
<defs>
<clipPath id="clip0_1235_4914">
<rect width="201" height="200" fill="white"/>
</clipPath>
</defs>
</svg>
