<svg width="101" height="100" viewBox="0 0 101 100" fill="none" xmlns="http://www.w3.org/2000/svg">
<path d="M100.475 6.52174V17.3913H0.5V6.52174C0.5 4.79207 1.18694 3.13324 2.40969 1.91017C3.63245 0.68711 5.29086 0 7.02009 0H93.9547C95.6839 0 97.3423 0.68711 98.5651 1.91017C99.7878 3.13324 100.475 4.79207 100.475 6.52174Z" fill="#2A006D"/>
<path d="M100.475 6.52174V13.0435H13.5402C11.811 13.0435 10.1526 12.3564 8.9298 11.1333C7.70704 9.91024 7.0201 8.25141 7.0201 6.52174C7.0201 2.17391 6.8897 1.32609 7.41131 0H93.9547C95.6839 0 97.3423 0.68711 98.5651 1.91017C99.7878 3.13324 100.475 4.79207 100.475 6.52174Z" fill="#48129E"/>
<path d="M100.475 17.3913C100.475 100 100.649 94.1956 100.084 95.6522C99.6352 96.9208 98.8055 98.0196 97.7082 98.798C96.611 99.5763 95.2999 99.9962 93.9547 100H7.02009C5.29086 100 3.63245 99.3129 2.40969 98.0898C1.18694 96.8668 0.5 95.2079 0.5 93.4782V17.3913H100.475Z" fill="#897AC0"/>
<path d="M100.475 17.3913C100.475 100 100.649 94.1956 100.083 95.6522H13.5401C11.8109 95.6522 10.1525 94.965 8.92971 93.742C7.70696 92.5189 7.02002 90.8601 7.02002 89.1304V17.3913H100.475Z" fill="#FBEEDB"/>
<path d="M78.7412 30.4348H22.2337C19.8331 30.4348 17.887 32.3813 17.887 34.7826V65.2174C17.887 67.6186 19.8331 69.5652 22.2337 69.5652H78.7412C81.1418 69.5652 83.0879 67.6186 83.0879 65.2174V34.7826C83.0879 32.3813 81.1418 30.4348 78.7412 30.4348Z" fill="#55C1ED"/>
<path d="M83.0878 34.7826V65.2174H28.7537C27.6009 65.2174 26.4953 64.7593 25.6801 63.9439C24.8649 63.1285 24.407 62.0227 24.407 60.8695V30.4348H78.7411C79.8939 30.4348 80.9995 30.8928 81.8147 31.7082C82.6299 32.5236 83.0878 33.6295 83.0878 34.7826Z" fill="#B2E7FE"/>
<path d="M11.3667 10.8696C10.9369 10.8696 10.5167 10.7421 10.1593 10.5032C9.80186 10.2643 9.52329 9.92479 9.3588 9.52756C9.1943 9.13033 9.15126 8.69323 9.23512 8.27153C9.31898 7.84984 9.52597 7.46248 9.82992 7.15845C10.1339 6.85443 10.5211 6.64738 10.9427 6.5635C11.3643 6.47962 11.8013 6.52267 12.1984 6.68721C12.5956 6.85175 12.935 7.13038 13.1738 7.48788C13.4126 7.84538 13.5401 8.26568 13.5401 8.69564C13.5401 9.2722 13.3111 9.82514 12.9035 10.2328C12.4959 10.6405 11.9431 10.8696 11.3667 10.8696Z" fill="#F506DE"/>
<path d="M20.0604 10.8696C19.7039 10.8675 19.3534 10.7777 19.0398 10.6082C18.7261 10.4387 18.459 10.1946 18.2619 9.89744C18.0649 9.60029 17.9439 9.25921 17.9097 8.90427C17.8755 8.54932 17.9291 8.19141 18.0658 7.86208C18.2025 7.53276 18.4181 7.24212 18.6936 7.01579C18.9691 6.78947 19.296 6.6344 19.6455 6.56426C19.9951 6.49412 20.3565 6.51106 20.6979 6.61359C21.0394 6.71612 21.3504 6.90108 21.6035 7.15219C21.91 7.45625 22.119 7.84473 22.2039 8.2681C22.2888 8.69146 22.2458 9.13053 22.0802 9.52932C21.9147 9.92811 21.6342 10.2686 21.2745 10.5073C20.9147 10.746 20.4921 10.8721 20.0604 10.8696Z" fill="#FDF305"/>
<path d="M28.7537 10.8696C28.3973 10.8675 28.0467 10.7777 27.7331 10.6082C27.4195 10.4387 27.1524 10.1946 26.9553 9.89744C26.7582 9.60029 26.6372 9.25921 26.603 8.90427C26.5688 8.54932 26.6225 8.19141 26.7592 7.86208C26.8959 7.53276 27.1115 7.24212 27.3869 7.01579C27.6624 6.78947 27.9894 6.6344 28.3389 6.56426C28.6884 6.49412 29.0498 6.51106 29.3913 6.61359C29.7327 6.71612 30.0437 6.90108 30.2968 7.15219C30.6033 7.45625 30.8124 7.84473 30.8973 8.2681C30.9822 8.69146 30.9391 9.13053 30.7736 9.52932C30.6081 9.92811 30.3275 10.2686 29.9678 10.5073C29.6081 10.746 29.1854 10.8721 28.7537 10.8696Z" fill="#84FF0F"/>
<path d="M30.927 82.6087H11.3667C10.7903 82.6087 10.2375 82.3797 9.82992 81.972C9.42234 81.5643 9.19336 81.0113 9.19336 80.4348C9.19336 79.8582 9.42234 79.3053 9.82992 78.8976C10.2375 78.4899 10.7903 78.2609 11.3667 78.2609H30.927C31.5034 78.2609 32.0562 78.4899 32.4638 78.8976C32.8714 79.3053 33.1004 79.8582 33.1004 80.4348C33.1004 81.0113 32.8714 81.5643 32.4638 81.972C32.0562 82.3797 31.5034 82.6087 30.927 82.6087ZM20.0602 91.3043H11.3667C10.7903 91.3043 10.2375 91.0753 9.82992 90.6676C9.42234 90.2599 9.19336 89.707 9.19336 89.1304C9.19336 88.5539 9.42234 88.0009 9.82992 87.5932C10.2375 87.1856 10.7903 86.9565 11.3667 86.9565H20.0602C20.6366 86.9565 21.1894 87.1856 21.597 87.5932C22.0046 88.0009 22.2335 88.5539 22.2335 89.1304C22.2335 89.707 22.0046 90.2599 21.597 90.6676C21.1894 91.0753 20.6366 91.3043 20.0602 91.3043ZM61.3541 82.6087H39.6205C39.0441 82.6087 38.4912 82.3797 38.0837 81.972C37.6761 81.5643 37.4471 81.0113 37.4471 80.4348C37.4471 79.8582 37.6761 79.3053 38.0837 78.8976C38.4912 78.4899 39.0441 78.2609 39.6205 78.2609H61.3541C61.9305 78.2609 62.4833 78.4899 62.8909 78.8976C63.2985 79.3053 63.5275 79.8582 63.5275 80.4348C63.5275 81.0113 63.2985 81.5643 62.8909 81.972C62.4833 82.3797 61.9305 82.6087 61.3541 82.6087ZM50.4873 91.3043H39.6205C39.0441 91.3043 38.4912 91.0753 38.0837 90.6676C37.6761 90.2599 37.4471 89.707 37.4471 89.1304C37.4471 88.5539 37.6761 88.0009 38.0837 87.5932C38.4912 87.1856 39.0441 86.9565 39.6205 86.9565H50.4873C51.0637 86.9565 51.6165 87.1856 52.0241 87.5932C52.4317 88.0009 52.6607 88.5539 52.6607 89.1304C52.6607 89.707 52.4317 90.2599 52.0241 90.6676C51.6165 91.0753 51.0637 91.3043 50.4873 91.3043ZM89.6078 82.6087H70.0476C69.4712 82.6087 68.9184 82.3797 68.5108 81.972C68.1032 81.5643 67.8742 81.0113 67.8742 80.4348C67.8742 79.8582 68.1032 79.3053 68.5108 78.8976C68.9184 78.4899 69.4712 78.2609 70.0476 78.2609H89.6078C90.1843 78.2609 90.7371 78.4899 91.1447 78.8976C91.5522 79.3053 91.7812 79.8582 91.7812 80.4348C91.7812 81.0113 91.5522 81.5643 91.1447 81.972C90.7371 82.3797 90.1843 82.6087 89.6078 82.6087ZM78.741 91.3043H70.0476C69.4712 91.3043 68.9184 91.0753 68.5108 90.6676C68.1032 90.2599 67.8742 89.707 67.8742 89.1304C67.8742 88.5539 68.1032 88.0009 68.5108 87.5932C68.9184 87.1856 69.4712 86.9565 70.0476 86.9565H78.741C79.3174 86.9565 79.8702 87.1856 80.2778 87.5932C80.6854 88.0009 80.9144 88.5539 80.9144 89.1304C80.9144 89.707 80.6854 90.2599 80.2778 90.6676C79.8702 91.0753 79.3174 91.3043 78.741 91.3043Z" fill="#414144"/>
<path d="M52.6607 45.6522C55.0613 45.6522 57.0074 43.7056 57.0074 41.3044C57.0074 38.9031 55.0613 36.9565 52.6607 36.9565C50.2601 36.9565 48.314 38.9031 48.314 41.3044C48.314 43.7056 50.2601 45.6522 52.6607 45.6522Z" fill="#F8C420"/>
<path d="M59.1808 69.5652C18.8866 69.5652 21.5598 69.7392 20.4297 69.1522L39.6205 47.8261C47.9662 57.1305 54.834 64.6522 59.1808 69.5652Z" fill="#53BE5E"/>
<path d="M55.2688 65.2174H30.4924L42.8806 51.4565L55.2688 65.2174Z" fill="#AFF56B"/>
<path d="M78.9584 69.5652H59.1808L51.4653 61L61.3541 50L78.9584 69.5652Z" fill="#87BA50"/>
<path d="M75.0465 65.2174H61.789L57.9856 61L64.6144 53.6304L75.0465 65.2174Z" fill="#A5EB62"/>
</svg>
